<svg class="css-ze2te4 css-qd6ojx" viewBox="0 0 140 133.74945568603368"><g transform="translate(-11.109009970275416, -15.200570410968982) scale(1.622779013305138)" class="css-1xvauu4" fill="#3fc1c9"><path xmlns="http://www.w3.org/2000/svg" d="M74.85,50.259c-0.462-0.256-1.045-0.096-1.304,0.373c-0.343,0.611-1.064,0.914-1.728,0.729  c-0.727-0.195-1.207-0.901-1.122-1.64c0.061-0.527-0.315-1.003-0.842-1.064c-0.517-0.055-1.002,0.314-1.064,0.842  c-0.191,1.676,0.894,3.271,2.528,3.711c0.297,0.081,0.6,0.121,0.899,0.121c1.222,0,2.382-0.656,3.001-1.77  C75.478,51.101,75.311,50.519,74.85,50.259z"></path><path xmlns="http://www.w3.org/2000/svg" d="M92.306,47.808c-0.57-1.148-1.324-1.427-1.858-1.465c-0.646-0.041-1.246-0.059-1.822-0.076  c-2.627-0.08-4.523-0.137-7.808-2.451c-0.942-0.666-1.788-1.321-2.554-1.944l3.119-7.999l-0.742-0.406  c-1.018-0.554-3.255-1.038-5.542-0.408l0.519-4.242l-0.82-0.208c-0.563-0.14-1.245-0.215-1.972-0.215  c-4.214,0-8.873,2.309-10.06,7.455c-3.331,1.081-8.292-0.312-13.544-1.954c-4.709-1.471-10.044-3.135-15.5-3.135  c-0.964,0-1.919,0.051-2.838,0.155c-6.563,0.735-12.236,3.485-16.426,7.532c-1.131-0.514-3.022-1.594-3.396-3.245  c0.969,0.37,1.913,0.249,2.57-0.343c0.617-0.546,0.794-1.327,0.476-2.084c-0.337-0.815-1.118-1.345-1.941-1.298  c-0.522,0.033-1.462,0.346-1.962,2.044c-0.547-0.53-0.984-1.245-1.07-2.035c-0.029-0.263-0.244-0.485-0.529-0.423  c-0.262,0.03-0.453,0.264-0.422,0.528c0.136,1.265,0.929,2.354,1.848,3.037c-0.028,2.345,2.226,3.826,3.717,4.554  c-4.779,5-7.413,11.781-6.821,19.193c0.839,10.533,6.905,16.791,13.562,20.515l-3.593,10.344l4.881-2.098l2.645,4.651l3.384-9.746  c6.204,2.001,11.403,2.253,11.526,2.261c1.063,0.039,2.103,0.063,3.121,0.063c7.11,0,13.18-0.999,18.316-2.503l3.67,9.745  l2.525-4.714l4.934,1.966l-3.681-9.77c10.549-4.879,15.27-11.426,15.519-11.793c0.113-0.118,1.349-1.404,2.848-3.038  c0.012-0.012,0.024-0.021,0.034-0.033c1.916-2.091,4.257-4.73,5.243-6.226C93.448,55.595,93.457,50.125,92.306,47.808z   M11.101,33.877c0.243-0.887,0.655-1.409,1.126-1.44c0.015-0.001,0.03-0.001,0.043-0.001c0.376,0,0.781,0.298,0.953,0.711  c0.11,0.264,0.161,0.652-0.229,1.001c-0.532,0.469-1.235,0.298-1.607,0.157c-0.114-0.046-0.231-0.099-0.349-0.161  C11.057,34.055,11.078,33.966,11.101,33.877z M23.998,87.165l-1.403-2.464l-2.461,1.058l1.962-5.648l3.883,1.35L23.998,87.165z   M78.939,34.858l-2.221,5.696c-1.099-0.988-1.878-1.781-2.267-2.193l0.388-3.18C76.28,34.56,77.879,34.593,78.939,34.858z   M66.465,79.878l2.107,5.597l-2.488-0.992l-1.339,2.499l-2.129-5.651l1.698-0.642c0.311-0.114,0.618-0.229,0.92-0.348L66.465,79.878  z M90.261,56.945c-0.906,1.371-3.13,3.883-5.005,5.928c-2.519,1.338-5.108-1.297-5.22-1.413c-0.363-0.378-0.969-0.39-1.352-0.029  c-0.384,0.364-0.4,0.969-0.034,1.354c0.107,0.116,2.018,2.058,4.501,2.354c-0.515,0.544-0.856,0.906-0.893,0.945  c-0.12,0.17-12.585,17.554-42.852,16.304c-0.287-0.014-28.754-1.365-30.572-24.164c-1.029-12.942,8.541-23.861,22.262-25.4  c0.848-0.096,1.732-0.145,2.625-0.145c5.163,0,10.128,1.548,14.93,3.045c4.041,1.268,7.857,2.457,11.233,2.457  c1.525,0,2.856-0.235,4.071-0.725l0.495-0.2l0.091-0.527c1.096-6.237,7.552-6.417,8.283-6.417c0.252,0,0.478,0.011,0.674,0.027  l-1.056,8.654l0.283,0.324c0.071,0.08,1.24,1.389,3.252,3.137l-0.036,0.094l0.273,0.104c0.988,0.849,2.146,1.78,3.497,2.73  c3.754,2.647,6.117,2.718,8.854,2.799c0.554,0.016,1.136,0.033,1.724,0.067c0.075,0.038,0.35,0.341,0.582,1.198  C91.511,51.797,91.207,55.513,90.261,56.945z"></path><path xmlns="http://www.w3.org/2000/svg" d="M13.736,64.592c-0.11-0.245-0.399-0.348-0.635-0.236c-0.241,0.112-0.346,0.394-0.233,0.636  c1.546,3.354,3.986,6.232,7.249,8.549c0.085,0.06,0.179,0.089,0.277,0.089c0.15,0,0.298-0.068,0.391-0.202  c0.154-0.216,0.104-0.515-0.115-0.667C17.546,70.538,15.214,67.79,13.736,64.592z"></path><path xmlns="http://www.w3.org/2000/svg" d="M24.023,74.791c-0.235-0.124-0.525-0.028-0.645,0.207c-0.12,0.237-0.025,0.524,0.21,0.645l0.668,0.34  c0.067,0.031,0.14,0.046,0.212,0.046c0.176,0,0.346-0.097,0.429-0.267c0.117-0.239,0.02-0.523-0.218-0.642L24.023,74.791z"></path><path xmlns="http://www.w3.org/2000/svg" d="M49.693,38.665l-0.899-0.28c-5.57-1.745-11.879-3.721-18.359-2.993c-0.527,0.062-0.906,0.533-0.848,1.061  c0.061,0.528,0.536,0.901,1.061,0.846c6.085-0.683,12.185,1.229,17.573,2.914l0.904,0.283c0.093,0.031,0.19,0.043,0.284,0.043  c0.408,0,0.787-0.262,0.914-0.675C50.48,39.359,50.198,38.821,49.693,38.665z"></path><path xmlns="http://www.w3.org/2000/svg" d="M34.261,23.81c0.01,0.022-0.003,0.049,0.01,0.071c0.015,0.025,0.043,0.042,0.063,0.063c0.544,0.903,1.229,1.697,2.028,2.372  c0.026,0.048,0.028,0.102,0.07,0.137c0.049,0.037,0.107,0.041,0.164,0.059c0.811,0.646,1.715,1.165,2.707,1.524  c0.019,0.006,0.023,0.029,0.041,0.036c0.055,0.021,0.111,0.031,0.166,0.031c0.001,0,0.003-0.001,0.004-0.001  c0.963,0.324,1.975,0.541,3.046,0.541c0.027,0,0.053-0.007,0.079-0.007c0.005,0,0.009,0.001,0.011,0.001  c0.007,0,0.012-0.005,0.017-0.005c1.114-0.011,2.17-0.237,3.164-0.601c0.036-0.001,0.068-0.003,0.105-0.017  c0.01-0.003,0.012-0.018,0.022-0.022c0.992-0.376,1.889-0.918,2.695-1.583c0.051-0.017,0.11-0.017,0.154-0.054  c0.041-0.033,0.041-0.086,0.069-0.128c0.794-0.697,1.465-1.515,1.997-2.434c0.017-0.022,0.041-0.029,0.056-0.055  c0.011-0.02,0-0.044,0.007-0.065c0.521-0.929,0.905-1.939,1.094-3.025c0.004-0.017,0.019-0.024,0.023-0.039  c0.003-0.023-0.016-0.039-0.014-0.058c0.08-0.506,0.155-1.015,0.155-1.542c0-1.76-0.511-3.395-1.343-4.818  c-0.005-0.013,0.002-0.031-0.005-0.045c-0.008-0.013-0.024-0.013-0.033-0.026c-0.552-0.927-1.248-1.736-2.066-2.43  c-0.024-0.037-0.024-0.084-0.06-0.115c-0.036-0.031-0.086-0.022-0.127-0.038c-0.806-0.65-1.704-1.172-2.69-1.537  C45.84,9.98,45.829,9.94,45.796,9.931c-0.046-0.02-0.09,0.005-0.134,0.004c-0.979-0.338-2.011-0.559-3.103-0.559  c-0.013,0-0.026,0.003-0.037,0.003c-0.016,0-0.023-0.012-0.037-0.012c-0.023,0-0.039,0.021-0.06,0.023  c-1.112,0.018-2.168,0.241-3.16,0.606C39.235,10,39.206,9.98,39.175,9.993c-0.023,0.009-0.028,0.035-0.049,0.045  c-0.988,0.381-1.882,0.928-2.683,1.595c-0.047,0.018-0.098,0.01-0.138,0.044c-0.038,0.033-0.038,0.08-0.064,0.122  c-0.788,0.691-1.454,1.503-1.982,2.414c-0.021,0.023-0.057,0.029-0.07,0.056c-0.018,0.033-0.003,0.066-0.015,0.099  c-0.515,0.923-0.893,1.927-1.081,3.007c-0.005,0.019-0.025,0.029-0.029,0.05c-0.005,0.025,0.016,0.047,0.018,0.075  c-0.078,0.495-0.153,0.992-0.153,1.507C32.93,20.766,33.438,22.39,34.261,23.81z M36.583,12.753l0.629,0.75  c0.096,0.111,0.23,0.169,0.368,0.169c0.107,0,0.218-0.037,0.309-0.113c0.202-0.172,0.228-0.472,0.058-0.677l-0.624-0.741  c0.543-0.413,1.122-0.783,1.754-1.061l0.355,0.928c0.073,0.191,0.254,0.31,0.447,0.31c0.057,0,0.115-0.009,0.171-0.033  c0.247-0.093,0.372-0.371,0.277-0.617l-0.342-0.9c0.647-0.198,1.32-0.333,2.022-0.376v0.954c0,0.264,0.215,0.48,0.479,0.48  c0.264,0,0.479-0.216,0.479-0.48v-0.969c0.7,0.033,1.372,0.155,2.02,0.346l-0.34,0.903c-0.093,0.249,0.031,0.524,0.281,0.62  c0.056,0.022,0.112,0.029,0.168,0.029c0.192,0,0.376-0.118,0.45-0.311l0.359-0.956c0.637,0.266,1.219,0.625,1.769,1.029  l-0.624,0.741c-0.171,0.202-0.146,0.506,0.057,0.677c0.091,0.075,0.201,0.111,0.309,0.111c0.138,0,0.272-0.056,0.367-0.167  l0.632-0.752c0.511,0.469,0.978,0.981,1.364,1.56l-0.857,0.496c-0.23,0.137-0.307,0.432-0.175,0.659  c0.09,0.153,0.25,0.238,0.415,0.238c0.082,0,0.165-0.021,0.24-0.063l0.837-0.483c0.313,0.599,0.565,1.231,0.729,1.902l-0.968,0.179  c-0.259,0.051-0.432,0.301-0.385,0.56c0.042,0.232,0.245,0.391,0.472,0.391c0.028,0,0.058,0,0.085-0.007l0.956-0.173  c0.047,0.365,0.111,0.726,0.111,1.103c0,0.324-0.06,0.63-0.095,0.945l-0.931-0.169c-0.28-0.051-0.51,0.124-0.558,0.386  c-0.046,0.261,0.126,0.508,0.386,0.557l0.976,0.177c-0.152,0.681-0.401,1.314-0.702,1.924l-0.832-0.482  c-0.227-0.133-0.523-0.058-0.655,0.174c-0.131,0.23-0.054,0.523,0.175,0.657l0.854,0.492c-0.375,0.586-0.816,1.124-1.318,1.602  l-0.629-0.765c-0.167-0.203-0.467-0.233-0.675-0.064c-0.204,0.166-0.232,0.47-0.066,0.674l0.629,0.765  c-0.539,0.412-1.115,0.779-1.744,1.056L45.707,26c-0.089-0.248-0.365-0.375-0.613-0.282c-0.25,0.088-0.376,0.363-0.285,0.615  l0.336,0.914c-0.644,0.203-1.315,0.332-2.015,0.377v-0.961c0-0.264-0.215-0.482-0.479-0.482c-0.264,0-0.479,0.218-0.479,0.482v0.979  c-0.704-0.029-1.38-0.151-2.033-0.344l0.333-0.905c0.092-0.246-0.036-0.521-0.285-0.613c-0.249-0.093-0.522,0.034-0.614,0.282  l-0.348,0.95c-0.641-0.268-1.228-0.629-1.779-1.034l0.625-0.758c0.168-0.202,0.142-0.506-0.063-0.675  c-0.205-0.167-0.507-0.136-0.675,0.066l-0.625,0.759c-0.508-0.469-0.974-0.98-1.359-1.555l0.867-0.497  c0.23-0.133,0.308-0.426,0.177-0.655c-0.13-0.231-0.425-0.306-0.652-0.179l-0.849,0.49c-0.314-0.604-0.57-1.243-0.733-1.92  l0.956-0.162c0.261-0.044,0.437-0.293,0.391-0.552c-0.043-0.262-0.276-0.449-0.552-0.391l-0.955,0.158  c-0.046-0.362-0.11-0.721-0.11-1.1c0-0.322,0.06-0.63,0.095-0.945l0.952,0.158c0.026,0.005,0.051,0.007,0.077,0.007  c0.231,0,0.435-0.166,0.472-0.402c0.045-0.258-0.131-0.504-0.394-0.548l-0.98-0.167c0.152-0.678,0.402-1.316,0.708-1.93l0.84,0.477  c0.074,0.046,0.157,0.066,0.237,0.066c0.167,0,0.327-0.085,0.416-0.242c0.131-0.23,0.052-0.523-0.177-0.652l-0.858-0.494  C35.648,13.759,36.087,13.229,36.583,12.753z"></path><path xmlns="http://www.w3.org/2000/svg" d="M41.758,24.5v0.539c0,0.264,0.216,0.479,0.48,0.479c0.264,0,0.479-0.215,0.479-0.479v-0.543  c1.206-0.108,1.673-0.664,1.673-2.069v-2.525c0-0.93-0.578-1.867-1.87-1.867c-0.763,0-0.897-0.237-0.897-0.899v-1.728  c0-0.127,0.036-0.761,0.76-0.761c1.015,0,1.015,0.177,1.015,0.565v1.458c0,0.264,0.215,0.477,0.479,0.477s0.479-0.213,0.479-0.477  v-1.458c0-1.018-0.594-1.352-1.18-1.46v-0.568c0-0.267-0.216-0.48-0.479-0.48c-0.264,0-0.479,0.214-0.479,0.48v0.541  c-1.011,0.083-1.554,0.877-1.554,1.684v1.728c0,1.251,0.606,1.857,1.856,1.857c0.754,0,0.911,0.497,0.911,0.91v2.525  c0,1.028-0.066,1.16-1.16,1.16c-0.967,0-0.967-0.282-0.967-0.964v-2.16c0-0.26-0.215-0.477-0.48-0.477  c-0.263,0-0.478,0.217-0.478,0.477v2.16C40.348,23.227,40.36,24.291,41.758,24.5z"></path><path xmlns="http://www.w3.org/2000/svg" d="M24.215,46.361c-0.891-0.119-1.722,0.194-2.412,0.872c-0.501-0.821-1.241-1.318-2.134-1.426  c-1.867-0.23-3.497,1.108-3.712,2.913c-0.086,0.708,0.055,1.411,0.398,2.022l-0.041,0.02l4.394,5.6l5.139-4.03l0.411-0.348  l-0.024-0.021c0.494-0.514,0.804-1.171,0.892-1.891c0.106-0.883-0.137-1.759-0.689-2.464C25.887,46.907,25.098,46.465,24.215,46.361  z M25.251,51.562l-0.427,0.344l0.007,0.007L20.87,55.02l-3.076-3.929l0.013-0.006l-0.375-0.462c-0.414-0.51-0.599-1.145-0.523-1.788  c0.153-1.289,1.343-2.237,2.646-2.075c0.965,0.115,1.457,0.89,1.695,1.513l0.321,0.832l0.519-0.727  c0.568-0.799,1.229-1.157,2.012-1.067c0.629,0.075,1.19,0.392,1.583,0.891c0.393,0.499,0.567,1.123,0.491,1.754  C26.098,50.602,25.767,51.168,25.251,51.562z"></path></g></svg>